{
  "asset": {
    "version": "2.0",
    "generator": "NutritionColours 3D Spatial Scanner",
    "copyright": "2026 NutritionColours"
  },
  "scene": 0,
  "scenes": [
    {
      "nodes": [0]
    }
  ],
  "nodes": [
    {
      "mesh": 0,
      "name": "ClinicFacialStructure"
    }
  ],
  "meshes": [
    {
      "primitives": [
        {
          "attributes": {
            "POSITION": 0
          },
          "indices": 1,
          "material": 0
        }
      ],
      "name": "ClinicHubModel"
    }
  ],
  "materials": [
    {
      "name": "EmeraldGlass",
      "pbrMetallicRoughness": {
        "baseColorFactor": [0.06, 0.72, 0.5, 0.8],
        "metallicFactor": 0.1,
        "roughnessFactor": 0.2
      }
    }
  ],
  "accessors": [
    {
      "bufferView": 0,
      "componentType": 5126,
      "count": 3,
      "type": "VEC3",
      "max": [1.0, 1.0, 0.0],
      "min": [-1.0, -1.0, 0.0]
    },
    {
      "bufferView": 1,
      "componentType": 5123,
      "count": 3,
      "type": "SCALAR",
      "max": [2],
      "min": [0]
    }
  ],
  "bufferViews": [
    {
      "buffer": 0,
      "byteOffset": 0,
      "byteLength": 36,
      "target": 34962
    },
    {
      "buffer": 0,
      "byteOffset": 36,
      "byteLength": 6,
      "target": 34963
    }
  ],
  "buffers": [
    {
      "byteLength": 42,
      "uri": "data:application/octet-stream;base64,"
    }
  ]
}
