<svg xmlns="http://www.w3.org/2000/svg" viewBox="0 0 1200 800" role="img" aria-labelledby="title desc">
  <title id="title">NutritionColours clinical nutrition placeholder</title>
  <desc id="desc">A clean NutritionColours branded illustration for clinical nutrition content.</desc>
  <defs>
    <linearGradient id="bg" x1="0" x2="1" y1="0" y2="1">
      <stop offset="0" stop-color="#ecfccb"/>
      <stop offset="0.45" stop-color="#f8fafc"/>
      <stop offset="1" stop-color="#ccfbf1"/>
    </linearGradient>
    <linearGradient id="leaf" x1="0" x2="1" y1="0" y2="1">
      <stop offset="0" stop-color="#16a34a"/>
      <stop offset="1" stop-color="#0f766e"/>
    </linearGradient>
  </defs>
  <rect width="1200" height="800" fill="url(#bg)"/>
  <circle cx="960" cy="140" r="170" fill="#d9f99d" opacity="0.55"/>
  <circle cx="160" cy="690" r="220" fill="#99f6e4" opacity="0.5"/>
  <g transform="translate(430 175)">
    <path d="M175 430c145-95 225-210 238-345C278 98 156 179 86 320c43-12 83-11 119 4-44 23-82 58-113 106 29 19 57 19 83 0Z" fill="url(#leaf)"/>
    <path d="M112 456c95-142 190-245 285-308" fill="none" stroke="#064e3b" stroke-width="18" stroke-linecap="round" opacity="0.35"/>
  </g>
  <text x="600" y="675" text-anchor="middle" fill="#064e3b" font-family="Inter, Arial, sans-serif" font-size="54" font-weight="800">NutritionColours</text>
  <text x="600" y="728" text-anchor="middle" fill="#475569" font-family="Inter, Arial, sans-serif" font-size="26" font-weight="600">Clinical nutrition and metabolic health</text>
</svg>
